<svg xmlns="http://www.w3.org/2000/svg" viewBox="0 0 1000 1000" role="img"><title>NARA Position #1</title><desc>On-chain NARA proof-of-position instrument. Architectural luxury fat frame.</desc><defs><radialGradient id="core-glow" cx="50%" cy="44%" r="50%"><stop offset="0%" stop-color="#0052FF" stop-opacity="0.20"/><stop offset="50%" stop-color="#0052FF" stop-opacity="0.05"/><stop offset="100%" stop-color="#0052FF" stop-opacity="0"/></radialGradient><linearGradient id="frame-bevel" x1="0%" y1="0%" x2="100%" y2="100%"><stop offset="0%" stop-color="#363D4A"/><stop offset="50%" stop-color="#181C22"/><stop offset="100%" stop-color="#0D0F13"/></linearGradient><linearGradient id="plate-grad" x1="0%" y1="0%" x2="0%" y2="100%"><stop offset="0%" stop-color="#13171F"/><stop offset="100%" stop-color="#0A0C10"/></linearGradient><pattern id="tech-grid" width="40" height="40" patternUnits="userSpaceOnUse"><path d="M 40 0 L 0 0 0 40" fill="none" stroke="#202630" stroke-width="1.2" stroke-opacity="0.75"/><circle cx="40" cy="40" r="1" fill="#202630" opacity="0.9"/></pattern><filter id="glow" x="-30%" y="-30%" width="160%" height="160%"><feGaussianBlur stdDeviation="8" result="blur"/><feComposite in="SourceGraphic" in2="blur" operator="over"/></filter></defs><rect x="0" y="0" width="1000" height="1000" rx="36" fill="url(#frame-bevel)"/><rect x="8" y="8" width="984" height="984" rx="30" fill="#0B0D10" stroke="#2D3440" stroke-width="2"/><rect x="44" y="44" width="912" height="912" rx="18" fill="url(#plate-grad)" stroke="#2A303C" stroke-width="3"/><path d="M20 54 L54 20 M20 20 L20 44 M20 20 L44 20" stroke="#F4EFE6" stroke-width="3" stroke-linecap="round" opacity="0.8"/><circle cx="32" cy="32" r="3.5" fill="#F4EFE6" opacity="0.9"/><line x1="24" y1="76" x2="24" y2="120" stroke="#404958" stroke-width="1.5"/><path d="M980 54 L946 20 M980 20 L980 44 M980 20 L956 20" stroke="#F4EFE6" stroke-width="3" stroke-linecap="round" opacity="0.8"/><circle cx="968" cy="32" r="3.5" fill="#F4EFE6" opacity="0.9"/><line x1="976" y1="76" x2="976" y2="120" stroke="#404958" stroke-width="1.5"/><path d="M20 946 L54 980 M20 980 L20 956 M20 980 L44 980" stroke="#F4EFE6" stroke-width="3" stroke-linecap="round" opacity="0.8"/><circle cx="32" cy="968" r="3.5" fill="#F4EFE6" opacity="0.9"/><line x1="24" y1="924" x2="24" y2="880" stroke="#404958" stroke-width="1.5"/><path d="M980 946 L946 980 M980 980 L980 956 M980 980 L956 980" stroke="#F4EFE6" stroke-width="3" stroke-linecap="round" opacity="0.8"/><circle cx="968" cy="968" r="3.5" fill="#F4EFE6" opacity="0.9"/><line x1="976" y1="924" x2="976" y2="880" stroke="#404958" stroke-width="1.5"/><g stroke="#3D4656" stroke-width="1" opacity="0.7"><line x1="200" y1="24" x2="200" y2="32"/><line x1="300" y1="24" x2="300" y2="32"/><line x1="400" y1="24" x2="400" y2="32"/><line x1="500" y1="20" x2="500" y2="36" stroke="#F4EFE6" stroke-width="1.5" opacity="0.9"/><line x1="600" y1="24" x2="600" y2="32"/><line x1="700" y1="24" x2="700" y2="32"/><line x1="800" y1="24" x2="800" y2="32"/></g><rect x="54" y="54" width="892" height="892" rx="12" fill="url(#tech-grid)"/><rect x="54" y="54" width="892" height="892" rx="12" fill="url(#core-glow)"/><g transform="translate(80, 100)"><circle cx="8" cy="8" r="7" fill="#0052FF" filter="url(#glow)"/><circle cx="8" cy="8" r="3.5" fill="#FFFFFF"/><text x="28" y="16" fill="#F4EFE6" font-family="'Satoshi', 'Inter', sans-serif" font-size="22" font-weight="800" letter-spacing="3">DORMANT // NEW</text><text x="840" y="16" fill="#F4EFE6" font-family="'IBM Plex Mono', monospace" font-size="18" font-weight="700" text-anchor="end" letter-spacing="2">EPOCH #1326</text></g><g transform="translate(500, 460)"><circle cx="0" cy="0" r="260" fill="none" stroke="#232830" stroke-width="1.5" stroke-dasharray="6 8"/><circle cx="0" cy="0" r="210" fill="none" stroke="#202630" stroke-width="2"/><circle cx="0" cy="0" r="160" fill="none" stroke="#0052FF" stroke-width="2.5" opacity="0.9" stroke-dasharray="12 6"/><line x1="-280" y1="0" x2="280" y2="0" stroke="#3D4656" stroke-width="1.5" opacity="0.6" stroke-dasharray="4 6"/><line x1="0" y1="-280" x2="0" y2="280" stroke="#3D4656" stroke-width="1.5" opacity="0.6" stroke-dasharray="4 6"/><path d="M-160 -10 L-160 10 M160 -10 L160 10 M-10 -160 L10 -160 M-10 160 L10 160" stroke="#F4EFE6" stroke-width="2.5"/><circle cx="0" cy="0" r="112" fill="#0A0C10" stroke="#0052FF" stroke-width="4.5" filter="url(#glow)"/><circle cx="0" cy="0" r="100" fill="none" stroke="#262D38" stroke-width="2"/><circle cx="0" cy="0" r="88" fill="none" stroke="#F4EFE6" stroke-width="1.5" stroke-dasharray="4 4" opacity="0.7"/><g stroke="#F4EFE6" stroke-width="9.5" stroke-linecap="round" stroke-linejoin="round" fill="none"><path d="M-30 44 L-30 -44"/><path d="M30 44 L30 -44"/><path d="M-30 -44 L30 44"/></g><circle cx="0" cy="0" r="6.5" fill="#0052FF"/></g><g transform="translate(80, 810)"><line x1="0" y1="0" x2="840" y2="0" stroke="#323A48" stroke-width="2"/><line x1="0" y1="0" x2="160" y2="0" stroke="#0052FF" stroke-width="3.5"/><text x="0" y="58" fill="#FFFFFF" font-family="'Satoshi', 'Inter', sans-serif" font-size="64" font-weight="900" letter-spacing="6">NARA</text><text x="840" y="54" fill="#F4EFE6" font-family="'IBM Plex Mono', monospace" font-size="24" font-weight="800" text-anchor="end" letter-spacing="2">POSITION #000015</text></g></svg>