<svg xmlns="http://www.w3.org/2000/svg" viewBox="0 0 1000 1000" role="img"><title>NARA Position #3</title><desc>On-chain NARA proof-of-position instrument. Visual marks reflect realized delivered rewards and holder actions.</desc><defs><radialGradient id="cg" cx="50%" cy="50%" r="50%"><stop offset="0%" stop-color="#6F6B63" stop-opacity="0.06"/><stop offset="55%" stop-color="#6F6B63" stop-opacity="0.02"/><stop offset="100%" stop-color="#6F6B63" stop-opacity="0"/></radialGradient><radialGradient id="vg" cx="50%" cy="40%" r="80%"><stop offset="50%" stop-color="#0E0F12" stop-opacity="0.1"/><stop offset="100%" stop-color="#050608" stop-opacity="0.8"/></radialGradient><pattern id="grid" width="58" height="58" patternUnits="userSpaceOnUse"><path d="M58 0H0V58" fill="none" stroke="#26241F" stroke-width="1.2"/></pattern><linearGradient id="disc" x1="0" y1="0" x2="0" y2="1"><stop offset="0%" stop-color="#1B1D20"/><stop offset="100%" stop-color="#060708"/></linearGradient><filter id="b" x="-60%" y="-60%" width="220%" height="220%"><feGaussianBlur stdDeviation="10"/></filter></defs><rect width="1000" height="1000" fill="#07090A"/><rect x="328" y="86" width="592" height="642" fill="url(#grid)" opacity="0.2"/><rect width="1000" height="1000" fill="url(#vg)"/><rect x="24" y="24" width="952" height="952" rx="16" fill="none" stroke="#26241F" stroke-width="2"/><text x="54" y="62" fill="#6F6B63" font-family="'IBM Plex Mono',monospace" font-size="8" letter-spacing="2" opacity="0.3">NARA POSITION 13 TOKEN 3 EPOCH 1300 / NARA POSITION 13 TOKEN 3 EPOCH 1300</text><text x="54" y="948" fill="#6F6B63" font-family="'IBM Plex Mono',monospace" font-size="8" letter-spacing="2" opacity="0.26">NARA POSITION 13 TOKEN 3 EPOCH 1300 / NARA POSITION 13 TOKEN 3 EPOCH 1300</text><text x="62" y="90" fill="#6F6B63" font-family="'IBM Plex Mono',monospace" font-size="7" letter-spacing="2" opacity="0.22" transform="rotate(90 62 90)">NARA POSITION 13 TOKEN 3 EPOCH 1300</text><text x="938" y="90" fill="#6F6B63" font-family="'IBM Plex Mono',monospace" font-size="7" letter-spacing="2" opacity="0.22" transform="rotate(90 938 90)">NARA POSITION 13 TOKEN 3 EPOCH 1300</text><ellipse cx="500" cy="430" rx="146" ry="46" fill="none" stroke="#6F6B63" stroke-width="0.8" opacity="0.07" transform="rotate(178 500 430)"/><g data-nara="registration-marks" stroke="#6F6B63" stroke-width="1.2" opacity="0.28" stroke-linecap="square"><path d="M98 723h26 M111 710v26"/><path d="M904 706h24 M916 694v24" opacity="0.72"/></g><rect data-nara="quiet-reserve" x="72" y="162" width="236" height="456" fill="#07090A"/><circle cx="500" cy="430" r="224" fill="url(#cg)" filter="url(#b)"/><g data-nara="scar" transform="rotate(105 500 430)"><path d="M500 430 L472 270 A160 160 0 0 1 528 270 Z" fill="#07090A"/><path d="M500 430 L472 270 M500 430 L528 270" stroke="#6E2924" stroke-width="1.8" opacity="0.88"/><path d="M472 270 A160 160 0 0 1 528 270" fill="none" stroke="#6E2924" stroke-width="1.8" opacity="0.55"/></g><path d="M500 170V690 M246 430H754" stroke="#6F6B63" stroke-width="2" opacity="0.32"/><rect x="404" y="690" width="8" height="10" fill="#6F6B63" opacity="0.34"/><rect x="436" y="678" width="8" height="22" fill="#6F6B63" opacity="0.34"/><rect x="468" y="666" width="8" height="34" fill="#6F6B63" opacity="0.34"/><rect x="500" y="654" width="8" height="46" fill="#6F6B63" opacity="0.34"/><rect x="532" y="690" width="8" height="10" fill="#6F6B63" opacity="0.34"/><rect x="564" y="678" width="8" height="22" fill="#6F6B63" opacity="0.34"/><rect x="596" y="666" width="8" height="34" fill="#6F6B63" opacity="0.34"/><circle cx="500" cy="430" r="104" fill="url(#disc)"/><circle cx="500" cy="430" r="104" fill="none" stroke="#6F6B63" stroke-width="3.5"/><circle cx="500" cy="430" r="70" fill="none" stroke="#6F6B63" stroke-width="1.5" opacity="0.38"/><g stroke="#6F6B63" stroke-width="7" stroke-linecap="round" fill="none"><path d="M476 478V382"/><path d="M524 478V382"/><path d="M476 382L524 478"/></g><circle cx="500" cy="431" r="6.5" fill="#6F6B63" opacity="0.9"/><circle cx="76" cy="86" r="10" fill="#6F6B63" opacity="0.82"/><text x="102" y="95" fill="#D8D1BD" font-family="'Satoshi',sans-serif" font-size="28" font-weight="700" letter-spacing="2">NEW</text><text x="102" y="124" fill="#6F6B63" font-family="'IBM Plex Mono',monospace" font-size="14" letter-spacing="3">CORE / DORMANT</text><path d="M40 812H960" stroke="#6F6B63" stroke-width="1" opacity="0.38"/><path d="M96 832H300" stroke="#6F6B63" stroke-width="2" opacity="0.28"/><text x="58" y="922" fill="#D8D1BD" font-family="'Satoshi', 'Inter', system-ui, -apple-system, sans-serif" font-size="104" font-weight="bold" letter-spacing="6">NARA</text><text x="60" y="958" fill="#6F6B63" font-family="'IBM Plex Mono',monospace" font-size="14" letter-spacing="4">ON-CHAIN / RENDERER V5 / MANUAL</text><text x="940" y="856" fill="#D8D1BD" font-family="'IBM Plex Mono',monospace" font-size="22" letter-spacing="2" text-anchor="end">POSITION 000013</text><text x="940" y="892" fill="#D8D1BD" font-family="'IBM Plex Mono',monospace" font-size="20" letter-spacing="2" text-anchor="end">TOKEN 000003</text><text x="940" y="928" fill="#6F6B63" font-family="'IBM Plex Mono',monospace" font-size="18" letter-spacing="2" text-anchor="end">STATE NEW</text><text data-nara="action-ledger" x="940" y="790" fill="#6F6B63" font-family="'IBM Plex Mono',monospace" font-size="12" letter-spacing="1" text-anchor="end" opacity="0.62">CLAIMS: 0 | EXTENDS: 0</text><text data-nara="compact-action-counter" x="940" y="760" fill="#6F6B63" font-family="'IBM Plex Mono',monospace" font-size="24" font-weight="700" letter-spacing="2" text-anchor="end" opacity="0.78">C 0 / E 0</text></svg>